<?xml version="1.0" encoding="UTF-8" standalone="no"?>
<!-- Created with Inkscape (http://www.inkscape.org/) -->

<svg
   width="400"
   height="38"
   viewBox="0 0 105.83333 10.054167"
   version="1.1"
   id="svg870"
   inkscape:version="1.1 (c4e8f9ed74, 2021-05-24)"
   sodipodi:docname="logo.svg"
   xmlns:inkscape="http://www.inkscape.org/namespaces/inkscape"
   xmlns:sodipodi="http://sodipodi.sourceforge.net/DTD/sodipodi-0.dtd"
   xmlns="http://www.w3.org/2000/svg"
   xmlns:svg="http://www.w3.org/2000/svg">
  <sodipodi:namedview
     id="namedview872"
     pagecolor="#ffffff"
     bordercolor="#666666"
     borderopacity="1.0"
     inkscape:pageshadow="2"
     inkscape:pageopacity="0.0"
     inkscape:pagecheckerboard="0"
     inkscape:document-units="mm"
     showgrid="false"
     width="400px"
     inkscape:zoom="2.6832492"
     inkscape:cx="164.72566"
     inkscape:cy="45.467265"
     inkscape:window-width="1920"
     inkscape:window-height="1013"
     inkscape:window-x="0"
     inkscape:window-y="30"
     inkscape:window-maximized="1"
     inkscape:current-layer="layer1"
     units="px" />
  <defs
     id="defs867" />
  <g
     inkscape:label="Camada 1"
     inkscape:groupmode="layer"
     id="layer1">
    <g
       id="g909"
       transform="matrix(0.08084581,0,0,0.08084581,0.42786156,-0.14704851)"
       style="fill:#ffe099;fill-opacity:1;stroke:none;stroke-width:1.1056;stroke-miterlimit:4;stroke-dasharray:none;stroke-opacity:1"
       inkscape:export-filename="/home/focus/Imagens/vectors/splash_borderless.png"
       inkscape:export-xdpi="200"
       inkscape:export-ydpi="200">
      <g
         id="layer2"
         inkscape:label="outside"
         style="display:inline;fill:#ffe099;fill-opacity:1;stroke:none;stroke-width:1.1056;stroke-miterlimit:4;stroke-dasharray:none;stroke-opacity:1">
        <path
           id="rect929"
           style="fill:#ffe099;fill-opacity:1;stroke:none;stroke-width:1.1056;stroke-miterlimit:4;stroke-dasharray:none;stroke-opacity:1;paint-order:stroke fill markers"
           d="M 57.339844,5 C 56.043896,5 55,6.0438962 55,7.3398438 V 19.289062 a 45.718506,45.718506 0 0 0 -16.296875,6.685547 l -8.404297,-8.404297 c -0.916373,-0.916373 -2.39222,-0.916373 -3.308594,0 l -9.419922,9.419922 c -0.916373,0.916374 -0.916373,2.392221 0,3.308594 l 8.404297,8.404297 A 45.718506,45.718506 0 0 0 19.289062,55 H 7.3398438 C 6.0438963,55 5,56.043896 5,57.339844 V 70.660156 C 5,71.956104 6.0438962,73 7.3398438,73 H 19.289062 a 45.718506,45.718506 0 0 0 6.685547,16.296875 l -8.404297,8.404297 c -0.572731,0.572733 -0.787714,1.363081 -0.644531,2.099609 v 0.002 c 0.08615,0.441259 0.301367,0.863869 0.644531,1.207039 l 9.419922,9.41992 c 0.229094,0.22909 0.493883,0.40108 0.775391,0.51562 0.140772,0.0573 0.284312,0.10027 0.431641,0.12891 0.737047,0.14389 1.528355,-0.0713 2.101562,-0.64453 l 8.404297,-8.4043 A 45.718506,45.718506 0 0 0 55,108.71094 v 11.94922 C 55,121.9561 56.043896,123 57.339844,123 H 70.660156 C 71.956104,123 73,121.9561 73,120.66016 v -11.94922 a 45.718506,45.718506 0 0 0 16.296875,-6.68555 l 8.404297,8.4043 c 0.916373,0.91637 2.392218,0.91637 3.308598,0 l 9.41992,-9.41992 c 0.91637,-0.91638 0.91637,-2.392225 0,-3.308598 l -8.4043,-8.404297 A 45.718506,45.718506 0 0 0 108.71094,73 h 11.94922 C 121.9561,73 123,71.956104 123,70.660156 V 57.339844 C 123,56.043896 121.9561,55 120.66016,55 h -11.83789 a 45.718506,45.718506 0 0 0 -6.76368,-16.330078 l 8.3711,-8.371094 c 0.5732,-0.573207 0.78842,-1.364515 0.64453,-2.101562 -0.0286,-0.147329 -0.0716,-0.290869 -0.12891,-0.431641 -0.11454,-0.281508 -0.28653,-0.546297 -0.51562,-0.775391 l -9.41992,-9.419922 c -0.91638,-0.916373 -2.392225,-0.916373 -3.308598,0 l -8.371094,8.371094 A 45.718506,45.718506 0 0 0 73,19.177734 V 7.3398438 C 73,6.0438963 71.956104,5 70.660156,5 Z M 64,43.761719 A 20.23768,20.23768 0 0 1 84.238281,64 20.23768,20.23768 0 0 1 64,84.238281 20.23768,20.23768 0 0 1 43.761719,64 20.23768,20.23768 0 0 1 64,43.761719 Z"
           inkscape:export-filename="/home/focus/Imagens/vectors/rect929.png"
           inkscape:export-xdpi="200"
           inkscape:export-ydpi="200" />
      </g>
      <g
         id="layer5"
         inkscape:label="inside"
         style="display:inline;fill:#ffe099;fill-opacity:1;stroke:none;stroke-width:1.1056;stroke-miterlimit:4;stroke-dasharray:none;stroke-opacity:1" />
    </g>
    <text
       xml:space="preserve"
       style="font-size:2.36786px;line-height:0;font-family:'Baloo Paaji 2';-inkscape-font-specification:'Baloo Paaji 2, ';stroke-width:0.0591979"
       x="11.293443"
       y="7.2137895"
       id="text2233"
       inkscape:export-filename="/home/focus/Imagens/vectors/splash_borderless.png"
       inkscape:export-xdpi="200"
       inkscape:export-ydpi="200"><tspan
         style="font-style:normal;font-variant:normal;font-weight:800;font-stretch:normal;font-size:8.52517px;line-height:0;font-family:'Baloo Paaji 2';-inkscape-font-specification:'Baloo Paaji 2 Ultra-Bold';stroke-width:0.0591979"
         sodipodi:role="line"
         id="tspan30569"
         x="11.293443"
         y="7.2137895">English Training Quizzes</tspan><tspan
         sodipodi:role="line"
         style="line-height:1.25;stroke-width:0.0591979"
         x="11.293443"
         y="7.2137895"
         id="tspan2235" /></text>
  </g>
</svg>
