<?xml version="1.0" encoding="UTF-8" standalone="no"?>
<svg
   enable-background="new 0 0 128 128"
   version="1.1"
   viewBox="0 0 128 128"
   xml:space="preserve"
   id="svg6"
   sodipodi:docname="gears-vector.svg"
   inkscape:version="1.1 (c4e8f9ed74, 2021-05-24)"
   inkscape:export-filename="/home/focus/Imagens/vectors/settings-1630709.png"
   inkscape:export-xdpi="200"
   inkscape:export-ydpi="200"
   xmlns:inkscape="http://www.inkscape.org/namespaces/inkscape"
   xmlns:sodipodi="http://sodipodi.sourceforge.net/DTD/sodipodi-0.dtd"
   xmlns:xlink="http://www.w3.org/1999/xlink"
   xmlns="http://www.w3.org/2000/svg"
   xmlns:svg="http://www.w3.org/2000/svg"><defs
   id="defs10" /><sodipodi:namedview
   id="namedview8"
   pagecolor="#ffffff"
   bordercolor="#666666"
   borderopacity="1.0"
   inkscape:pageshadow="2"
   inkscape:pageopacity="0.0"
   inkscape:pagecheckerboard="0"
   showgrid="false"
   inkscape:zoom="2"
   inkscape:cx="7.2500001"
   inkscape:cy="93.500001"
   inkscape:window-width="1440"
   inkscape:window-height="773"
   inkscape:window-x="1920"
   inkscape:window-y="0"
   inkscape:window-maximized="1"
   inkscape:current-layer="layer1"
   showborder="false"
   inkscape:snap-bbox="true"
   inkscape:bbox-paths="false"
   inkscape:bbox-nodes="false"
   inkscape:snap-bbox-edge-midpoints="false"
   inkscape:snap-bbox-midpoints="false"
   inkscape:snap-nodes="true" />
	
	
<g
   inkscape:groupmode="layer"
   id="layer5"
   inkscape:label="flag_back"
   style="display:none;opacity:0.257416"
   sodipodi:insensitive="true"><image
     width="235.60002"
     height="198.32465"
     preserveAspectRatio="none"
     xlink:href="../1024px-Flag_of_the_United_Kingdom_(2-3).svg.png"
     id="image865"
     x="-18.07444"
     y="4.7489624"
     style="display:inline;stroke-width:3.86939" /></g><g
   inkscape:groupmode="layer"
   id="layer1"
   inkscape:label="colors"
   style="display:inline;opacity:1"><path
     style="display:inline;fill:#012169;fill-opacity:1;stroke:none;stroke-width:0.1;stroke-linecap:butt;stroke-linejoin:miter;stroke-miterlimit:4;stroke-dasharray:none;stroke-opacity:1"
     d="m 26.064064,18.116308 31.871319,26.588934 c 0,0 7.919328,-2.446532 15.33033,1.18337 V 19.078688 L 73.018214,6.8871415 c 0,0 -0.55928,-1.769302 -1.606389,-1.8425626 C 70.364717,4.9713182 57.339844,5 57.339844,5 c 0,0 -2.31343,0.4728586 -2.39932,1.657261 C 54.854634,7.8416634 55,19.289062 55,19.289062 c 0,0 -8.553614,1.534817 -16.296875,6.685547 l -9.115072,-8.86668 c 0,0 -1.443211,-0.431195 -3.523989,1.008379 z"
     id="path903"
     inkscape:export-filename="/home/focus/Imagens/vectors/home1.png"
     inkscape:export-xdpi="432.06"
     inkscape:export-ydpi="432.06" /><rect
     style="fill:#012169;fill-opacity:1;stroke:#000000;stroke-width:0.0999999;stroke-miterlimit:4;stroke-dasharray:none;paint-order:stroke fill markers"
     id="rect22467"
     width="20.963907"
     height="20.963955"
     x="-53.950943"
     y="12.328597" /><rect
     style="fill:#c8102e;fill-opacity:1;stroke:#000000;stroke-width:0.0999999;stroke-miterlimit:4;stroke-dasharray:none;paint-order:stroke fill markers"
     id="rect26917"
     width="20.963907"
     height="20.963955"
     x="-53.950943"
     y="32.32864" /><path
     style="fill:#c8102e;fill-opacity:1;stroke:none;stroke-width:1px;stroke-linecap:butt;stroke-linejoin:miter;stroke-opacity:1"
     d="m 20.155739,52.725746 21.527199,18.195809 3.228785,-0.0216 c 0,0 -3.405284,-6.422636 -0.167285,-13.264676 L 24.588434,40.65035 c 0,0 -4.572082,8.921446 -4.432695,12.075396 z"
     id="path64825"
     sodipodi:nodetypes="cccccc"
     inkscape:export-filename="/home/focus/Imagens/vectors/home1.png"
     inkscape:export-xdpi="432.06"
     inkscape:export-ydpi="432.06" /><path
     style="fill:#012169;fill-opacity:1;stroke:none;stroke-width:1px;stroke-linecap:butt;stroke-linejoin:miter;stroke-opacity:1"
     d="M 4.9133687,70.921555 32.267631,70.911395 13.221959,55.107451 H 7.028167 c 0,0 -1.5139916,0.115477 -1.9487313,1.983031 l -0.166067,13.831073"
     id="path79272"
     inkscape:export-filename="/home/focus/Imagens/vectors/home1.png"
     inkscape:export-xdpi="432.06"
     inkscape:export-ydpi="432.06" /><path
     style="fill:#c8102e;fill-opacity:1;stroke:#000000;stroke-width:0.1;stroke-linecap:butt;stroke-linejoin:miter;stroke-miterlimit:4;stroke-dasharray:none;stroke-opacity:1"
     d="M 84.035156,84 V 22.802284 c 0,0 4.385223,2.178563 5.294922,3.139122 m 0,0 8.792813,-8.812569 c 0,0 1.159779,-1.0002 2.470819,0.124555 1.31104,1.124754 9.98703,9.896283 9.98703,9.896283 0,0 1.14365,1.888241 0.17013,2.942012 -0.97352,1.053771 -8.69228,8.578235 -8.69228,8.578235 0,0 4.98146,7.257964 6.76368,16.330078 l 6.56728,-0.03537 V 73.021794 L 108.71094,73 c 0,0 -0.76586,6.473062 -6.68555,16.296875 l 8.55383,8.637374 c 0,0 1.29715,1.25368 -0.27646,3.158031 -1.57362,1.90434 -9.44141,9.37871 -9.44141,9.37871 0,0 -1.588075,1.43587 -3.087054,-0.0707 -1.49898,-1.50653 -8.477421,-8.37493 -8.477421,-8.37493 0,0 -5.185578,4.62218 -16.296875,6.68555 l -0.0904,12.25766 c 0,0 -0.646691,1.63369 -1.472987,1.72942 -0.826297,0.0957 -14.413929,0.13986 -14.413929,0.13986 0,0 -2.356356,-0.30875 -2.314599,-2.44329 C 54.749842,118.26002 55,108.71094 55,108.71094 c 0,0 -9.01193,-1.33051 -16.296875,-6.6855 l -8.44787,8.26405 c 0,0 -1.765286,1.27667 -3.251247,-0.0337 -1.485962,-1.31038 -9.145919,-9.24102 -9.145919,-9.24102 0,0 -1.861785,-1.687013 0.400622,-3.926738 2.262406,-2.239725 7.715898,-7.791147 7.715898,-7.791147 L 22.940361,83.884051 84.035156,84"
     id="path94818"
     inkscape:export-filename="/home/focus/Imagens/vectors/home1.png"
     inkscape:export-xdpi="432.06"
     inkscape:export-ydpi="432.06" /><path
     style="fill:#c8102e;fill-opacity:0.998963;stroke:none;stroke-width:0.1;stroke-linecap:butt;stroke-linejoin:miter;stroke-miterlimit:4;stroke-dasharray:none;stroke-opacity:1"
     d="m 120.04167,83.997776 h 9.73265 l 2.64574,2.82199 4.96939,-2.8284 h 28.43879 l 4.77641,2.803806 2.66619,-2.798886 h 9.85762 l 3.49663,3.764429 c 0,0 0.97716,1.214157 -0.0674,2.288567 -1.04456,1.074409 -6.35279,6.346166 -6.35279,6.346166 0,0 4.16577,6.160182 5.1014,12.316702 l 8.72589,-0.0352 c 0,0 1.93171,0.22898 1.95397,2.2754 0.0223,2.04642 0,9.28841 0,9.28841 0,0 -0.40979,2.06881 -2.39856,2.07692 -1.98877,0.008 -8.42453,0 -8.42453,0 l -0.23392,1.38467 h -20.63428 c 4.31211,-7.17781 2.97916,-23.922735 -12.78727,-23.36306 -16.88707,0.59945 -16.87177,17.20369 -12.81176,23.36624 h -20.69545 l -0.2231,-1.4176 -8.79642,-0.0384 c 0,0 -1.98567,0.14493 -1.94091,-2.65127 0.0448,-2.7962 -0.0763,-8.83526 -0.0763,-8.83526 0,0 -0.31051,-1.96027 3.28138,-1.95819 3.59189,0.002 7.33491,0 7.33491,0 0,0 1.94577,-8.862787 5.23987,-12.384712 l -5.92901,-5.876676 c 0,0 -1.82147,-1.917986 0.15804,-3.532448 z"
     id="path98125"
     sodipodi:nodetypes="cccccccccscccscccccscccccccccccc"
     inkscape:export-filename="/home/focus/Imagens/vectors/home1.png"
     inkscape:export-xdpi="432.06"
     inkscape:export-ydpi="432.06" /><path
     style="fill:#002169;fill-opacity:1;stroke:none;stroke-width:1px;stroke-linecap:butt;stroke-linejoin:miter;stroke-opacity:1"
     d="m 73.499604,149.83762 -20.397073,17.1803 c 0,0 0.658886,4.80013 4.295189,9.84647 l -5.404716,5.42041 c 0,0 -1.46879,1.30146 0.01201,2.93586 1.480803,1.63441 5.504215,5.52397 5.504215,5.52397 0,0 1.554865,2.16913 4.371388,-0.89527 2.816523,-3.06439 4.254418,-4.247 4.254418,-4.247 l 7.298365,3.52606 v -19.8536 c 0,0 -8.523847,-9.93905 0.0662,-19.4372 z"
     id="path127864"
     inkscape:export-filename="/home/focus/Imagens/vectors/home1.png"
     inkscape:export-xdpi="432.06"
     inkscape:export-ydpi="432.06" /><path
     style="fill:#c8102e;fill-opacity:1;stroke:none;stroke-width:1px;stroke-linecap:butt;stroke-linejoin:miter;stroke-opacity:1"
     d="m 73.494171,136.99043 h -13.0172 l -4.406322,3.8814 1.327071,1.2632 c 0,0 -3.728396,5.48041 -4.589201,11.18676 l -7.831041,0.0522 c 0,0 -1.894997,-0.0846 -1.916961,1.86778 -0.02196,1.95237 -0.0829,8.15203 -0.0829,8.15203 0,0 0.154004,2.19986 2.221804,2.20494 l 28.291427,-23.80455 z"
     id="path133120"
     inkscape:export-filename="/home/focus/Imagens/vectors/home1.png"
     inkscape:export-xdpi="432.06"
     inkscape:export-ydpi="432.06" /><path
     style="fill:#c8102e;fill-opacity:1;stroke:none;stroke-width:1px;stroke-linecap:butt;stroke-linejoin:miter;stroke-opacity:1"
     d="m 139.22879,136.97649 19.07773,16.17368 -0.0186,-3.92739 c 0,0 6.88458,-1.7619 9.82329,-3.55068 l -10.31919,-8.69693 z"
     id="path133763"
     inkscape:export-filename="/home/focus/Imagens/vectors/home1.png"
     inkscape:export-xdpi="432.06"
     inkscape:export-ydpi="432.06" /><path
     style="fill:#012169;fill-opacity:1;stroke:none;stroke-width:1px;stroke-linecap:butt;stroke-linejoin:miter;stroke-opacity:1"
     d="m 167.34255,136.98182 h 15.21314 l 3.47606,3.50132 c 0,0 1.80503,1.53837 0.19507,3.21535 -1.60997,1.67699 -4.9733,4.98089 -4.9733,4.98089 z"
     id="path145022"
     inkscape:export-filename="/home/focus/Imagens/vectors/home1.png"
     inkscape:export-xdpi="432.06"
     inkscape:export-ydpi="432.06" /><g
     id="g161956"
     inkscape:export-filename="/home/focus/Imagens/vectors/home1.png"
     inkscape:export-xdpi="432.06"
     inkscape:export-ydpi="432.06"><path
       style="fill:#c8102e;fill-opacity:1;stroke:none;stroke-width:0.1;stroke-linecap:butt;stroke-linejoin:miter;stroke-miterlimit:4;stroke-dasharray:none;stroke-opacity:1"
       d="m 84.035156,123.69922 v 21.87479 c 0,0 12.336388,-10e-4 13.409348,14.39151 0,0 0.19927,4.7555 -3.746579,9.1471 -3.945848,4.39161 -9.662801,4.23553 -9.662801,4.23553 v 26.6518 l 3.890581,0.013 c 0,0 1.844379,-0.10345 1.8416,-2.24918 -0.0028,-2.14573 0,-7.48926 0,-7.48926 0,0 9.313343,-2.56297 11.097085,-4.67222 l 4.76954,4.85116 c 0,0 2.45487,2.60649 3.9784,-0.028 l 5.24435,-5.26711 c 0,0 1.91513,-1.30791 -0.27961,-3.32916 -2.19474,-2.02125 -4.97537,-4.96416 -4.97537,-4.96416 0,0 3.34555,-5.59817 4.5892,-11.18675 h 1.17999 v -12.41025 l -1.10357,0.0544 c 0,0 -1.14246,-5.82907 -4.64284,-11.20988 l 5.95481,-5.81766 -0.0321,-2.13356 -6.29638,-6.06649 c 0,0 -1.40804,-1.51965 -2.99569,-0.0154 -1.58765,1.50423 -5.36796,5.2958 -5.36796,5.2958 0,0 -4.012331,-3.75411 -11.209518,-4.64306 l -0.329943,-9.35725 z"
       id="path99226"
       sodipodi:nodetypes="cccscccscccccscccccccccscccc" /><path
       style="fill:#c8102e;stroke:none;stroke-width:1px;stroke-linecap:butt;stroke-linejoin:miter;stroke-opacity:1;fill-opacity:1"
       d="M 89.347699,119.37492 78.92794,119 c 0,0 -1.451862,0.54471 -1.424714,1.92825 0.02715,1.38354 0.04027,2.82032 0.04027,2.82032 H 84.0824 l 5.265297,-4.37365 v 0"
       id="path155708" /></g></g><g
   inkscape:groupmode="layer"
   id="layer2"
   inkscape:label="vector"
   style="display:inline"
   sodipodi:insensitive="true"><path
     id="rect929"
     style="fill:none;fill-opacity:1;stroke:#000000;stroke-width:1.1;stroke-miterlimit:4;stroke-dasharray:none;paint-order:stroke fill markers"
     d="M 57.339844,5 C 56.043896,5 55,6.0438962 55,7.3398438 V 19.289062 a 45.718506,45.718506 0 0 0 -16.296875,6.685547 l -8.404297,-8.404297 c -0.916373,-0.916373 -2.39222,-0.916373 -3.308594,0 l -9.419922,9.419922 c -0.916373,0.916374 -0.916373,2.392221 0,3.308594 l 8.404297,8.404297 A 45.718506,45.718506 0 0 0 19.289062,55 H 7.3398438 C 6.0438963,55 5,56.043896 5,57.339844 V 70.660156 C 5,71.956104 6.0438962,73 7.3398438,73 H 19.289062 a 45.718506,45.718506 0 0 0 6.685547,16.296875 l -8.404297,8.404297 c -0.572731,0.572733 -0.787714,1.363081 -0.644531,2.099609 v 0.002 c 0.08615,0.441259 0.301367,0.863869 0.644531,1.207039 l 9.419922,9.41992 c 0.229094,0.22909 0.493883,0.40108 0.775391,0.51562 0.140772,0.0573 0.284312,0.10027 0.431641,0.12891 0.737047,0.14389 1.528355,-0.0713 2.101562,-0.64453 l 8.404297,-8.4043 A 45.718506,45.718506 0 0 0 55,108.71094 v 11.94922 C 55,121.9561 56.043896,123 57.339844,123 H 70.660156 C 71.956104,123 73,121.9561 73,120.66016 v -11.94922 a 45.718506,45.718506 0 0 0 16.296875,-6.68555 l 8.404297,8.4043 c 0.916373,0.91637 2.392218,0.91637 3.308598,0 l 9.41992,-9.41992 c 0.91637,-0.91638 0.91637,-2.392225 0,-3.308598 l -8.4043,-8.404297 A 45.718506,45.718506 0 0 0 108.71094,73 h 11.94922 C 121.9561,73 123,71.956104 123,70.660156 V 57.339844 C 123,56.043896 121.9561,55 120.66016,55 h -11.83789 a 45.718506,45.718506 0 0 0 -6.76368,-16.330078 l 8.3711,-8.371094 c 0.5732,-0.573207 0.78842,-1.364515 0.64453,-2.101562 -0.0286,-0.147329 -0.0716,-0.290869 -0.12891,-0.431641 -0.11454,-0.281508 -0.28653,-0.546297 -0.51562,-0.775391 l -9.41992,-9.419922 c -0.91638,-0.916373 -2.392225,-0.916373 -3.308598,0 l -8.371094,8.371094 A 45.718506,45.718506 0 0 0 73,19.177734 V 7.3398438 C 73,6.0438963 71.956104,5 70.660156,5 Z M 64,43.761719 A 20.23768,20.23768 0 0 1 84.238281,64 20.23768,20.23768 0 0 1 64,84.238281 20.23768,20.23768 0 0 1 43.761719,64 20.23768,20.23768 0 0 1 64,43.761719 Z"
     inkscape:export-filename="/home/focus/Imagens/vectors/rect929.png"
     inkscape:export-xdpi="200"
     inkscape:export-ydpi="200" /><path
     id="path845"
     style="fill:none;fill-opacity:1;stroke:#000000;stroke-width:1.1;stroke-miterlimit:4;stroke-dasharray:none;paint-order:stroke fill markers"
     d="m 146.47649,71 c -0.97744,0 -1.76479,0.787343 -1.76479,1.764792 v 9.012507 a 34.482455,34.482455 0 0 0 -12.29164,5.042467 l -6.33881,-6.338807 c -0.69116,-0.69116 -1.80431,-0.69116 -2.49547,0 l -7.10482,7.104823 c -0.69117,0.691165 -0.69117,1.804301 0,2.495459 l 6.33881,6.338807 a 34.482455,34.482455 0 0 0 -5.04248,12.291652 h -9.0125 c -0.97744,0 -1.76479,0.78735 -1.76479,1.76479 v 10.04664 c 0,0.97745 0.78735,1.76479 1.76479,1.76479 h 9.0125 a 34.482455,34.482455 0 0 0 5.04248,12.29165 l -6.33881,6.3388 c -0.43198,0.432 -0.59413,1.0281 -0.48613,1.58361 v 0.002 c 0.065,0.33281 0.2273,0.65156 0.48613,0.91039 l 7.10482,7.10482 c 0.1728,0.17279 0.37251,0.30252 0.58484,0.38889 0.10616,0.0432 0.21443,0.0756 0.32555,0.0972 0.5559,0.10853 1.15274,-0.0538 1.58508,-0.48613 l 6.33881,-6.33881 a 34.482455,34.482455 0 0 0 12.29164,5.04244 v 9.01251 c 0,0.97743 0.78735,1.76478 1.76479,1.76478 h 10.04664 c 0.97744,0 1.76479,-0.78735 1.76479,-1.76478 v -9.01251 a 34.482455,34.482455 0 0 0 12.29165,-5.04248 l 6.3388,6.33881 c 0.69116,0.69117 1.80431,0.69117 2.49547,0 l 7.10482,-7.10482 c 0.69116,-0.69116 0.69116,-1.8043 0,-2.49547 l -6.33881,-6.3388 a 34.482455,34.482455 0 0 0 5.04248,-12.29165 h 9.01251 c 0.97743,0 1.76478,-0.78735 1.76478,-1.76479 v -10.04664 c 0,-0.97744 -0.78735,-1.76479 -1.76478,-1.76479 h -8.92854 a 34.482455,34.482455 0 0 0 -5.1014,-12.316702 l 6.31376,-6.313759 c 0.43234,-0.432333 0.59466,-1.029166 0.48613,-1.585067 -0.0216,-0.111122 -0.0541,-0.219385 -0.0972,-0.325558 -0.0864,-0.212325 -0.21611,-0.412038 -0.3889,-0.584834 l -7.10482,-7.104822 c -0.69116,-0.69116 -1.8043,-0.69116 -2.49547,0 l -6.31375,6.313764 a 34.482455,34.482455 0 0 0 -12.3167,-5.101771 V 72.764792 C 158.28792,71.787343 157.50057,71 156.52313,71 Z m 5.02331,29.23542 a 15.263947,15.263948 0 0 1 15.26441,15.26439 15.263947,15.263948 0 0 1 -15.26441,15.2644 15.263947,15.263948 0 0 1 -15.26438,-15.2644 15.263947,15.263948 0 0 1 15.26438,-15.26439 z"
     inkscape:export-filename="/home/focus/Imagens/vectors/rect929.png"
     inkscape:export-xdpi="200"
     inkscape:export-ydpi="200" /><path
     id="path847"
     style="fill:none;fill-opacity:1;stroke:#000000;stroke-width:1.1;stroke-miterlimit:4;stroke-dasharray:none;paint-order:stroke fill markers"
     d="m 78.92794,119 c -0.889585,0 -1.606154,0.71657 -1.606154,1.60616 v 8.20237 a 31.382817,31.382818 0 0 0 -11.186749,4.58919 l -5.769013,-5.76901 c -0.629033,-0.62903 -1.642109,-0.62903 -2.271143,0 l -6.466167,6.46618 c -0.629033,0.62903 -0.629033,1.6421 0,2.27114 l 5.769006,5.769 a 31.382817,31.382818 0 0 0 -4.589201,11.18676 H 44.606154 C 43.716569,153.32179 43,154.03835 43,154.92794 v 9.14354 c 0,0.88958 0.716569,1.60616 1.606154,1.60616 h 8.202365 a 31.382817,31.382818 0 0 0 4.589201,11.18675 l -5.769006,5.769 c -0.393147,0.39316 -0.54072,0.93567 -0.442435,1.44126 v 0.002 c 0.05921,0.30289 0.206872,0.59298 0.442435,0.82855 l 6.466167,6.46617 c 0.157261,0.15725 0.339023,0.27531 0.532263,0.35393 0.09662,0.0393 0.19516,0.0688 0.296288,0.0885 0.505931,0.0988 1.049121,-0.0489 1.442592,-0.44242 l 5.769013,-5.76902 a 31.382817,31.382818 0 0 0 11.186749,4.58917 v 8.20237 c 0,0.88958 0.716569,1.60615 1.606154,1.60615 h 9.143538 c 0.889584,0 1.606154,-0.71657 1.606154,-1.60615 v -8.20237 a 31.382817,31.382818 0 0 0 11.186758,-4.5892 l 5.769,5.76901 c 0.62903,0.62903 1.64212,0.62903 2.27115,0 l 6.46617,-6.46617 c 0.62903,-0.62903 0.62903,-1.6421 0,-2.27115 l -5.76901,-5.769 a 31.382817,31.382818 0 0 0 4.5892,-11.18675 h 8.20237 c 0.88957,0 1.60615,-0.71657 1.60615,-1.60616 v -9.14354 c 0,-0.88958 -0.71658,-1.60616 -1.60615,-1.60616 h -8.12595 a 31.382817,31.382818 0 0 0 -4.64284,-11.20988 l 5.74623,-5.74621 c 0.39347,-0.39347 0.5412,-0.93666 0.44243,-1.44259 -0.0196,-0.10113 -0.0492,-0.19967 -0.0885,-0.29629 -0.0787,-0.19324 -0.19668,-0.37501 -0.35394,-0.53226 l -6.46617,-6.46617 c -0.62903,-0.62904 -1.64211,-0.62904 -2.27115,0 l -5.74621,5.74621 a 31.382817,31.382818 0 0 0 -11.209518,-4.64306 v -8.12595 c 0,-0.88959 -0.71657,-1.60616 -1.606154,-1.60616 z m 4.571768,26.60744 A 13.891866,13.891867 0 0 1 97.391992,159.49971 13.891866,13.891867 0 0 1 83.499708,173.392 13.891866,13.891867 0 0 1 69.607434,159.49971 13.891866,13.891867 0 0 1 83.499708,145.60744 Z"
     inkscape:export-filename="/home/focus/Imagens/vectors/rect929.png"
     inkscape:export-xdpi="200"
     inkscape:export-ydpi="200" /></g></svg>
