<?xml version="1.0" encoding="UTF-8" standalone="no"?>
<!-- Created with Inkscape (http://www.inkscape.org/) -->

<svg
   width="280.64963"
   height="36.055958"
   viewBox="0 0 74.25521 9.5398059"
   version="1.1"
   id="svg870"
   inkscape:version="1.2.1 (9c6d41e410, 2022-07-14, custom)"
   sodipodi:docname="logo.svg"
   xmlns:inkscape="http://www.inkscape.org/namespaces/inkscape"
   xmlns:sodipodi="http://sodipodi.sourceforge.net/DTD/sodipodi-0.dtd"
   xmlns="http://www.w3.org/2000/svg"
   xmlns:svg="http://www.w3.org/2000/svg">
  <sodipodi:namedview
     id="namedview872"
     pagecolor="#ffffff"
     bordercolor="#666666"
     borderopacity="1.0"
     inkscape:pageshadow="2"
     inkscape:pageopacity="0.0"
     inkscape:pagecheckerboard="0"
     inkscape:document-units="mm"
     showgrid="false"
     width="400px"
     inkscape:zoom="2.6832492"
     inkscape:cx="146.65056"
     inkscape:cy="41.92678"
     inkscape:window-width="3840"
     inkscape:window-height="2069"
     inkscape:window-x="0"
     inkscape:window-y="52"
     inkscape:window-maximized="1"
     inkscape:current-layer="g3167"
     units="px"
     inkscape:showpageshadow="2"
     inkscape:deskcolor="#d1d1d1" />
  <defs
     id="defs867" />
  <g
     inkscape:label="Camada 1"
     inkscape:groupmode="layer"
     id="layer1"
     transform="translate(-1.3613043,-0.65406105)">
    <g
       id="g3167"
       transform="translate(0.52921368,0.39688051)">
      <g
         id="g909"
         transform="matrix(0.08084581,0,0,0.08084581,0.42786156,-0.14704851)"
         style="fill:#ffe099;fill-opacity:1;stroke:none;stroke-width:1.1056;stroke-miterlimit:4;stroke-dasharray:none;stroke-opacity:1"
         inkscape:export-filename="/home/focus/Imagens/vectors/splash_borderless.png"
         inkscape:export-xdpi="200"
         inkscape:export-ydpi="200">
        <g
           id="layer2"
           inkscape:label="outside"
           style="display:inline;fill:#ffe099;fill-opacity:1;stroke:none;stroke-width:1.1056;stroke-miterlimit:4;stroke-dasharray:none;stroke-opacity:1">
          <path
             id="rect929"
             style="fill:#ffe099;fill-opacity:1;stroke:none;stroke-width:1.1056;stroke-miterlimit:4;stroke-dasharray:none;stroke-opacity:1;paint-order:stroke fill markers"
             d="M 57.339844,5 C 56.043896,5 55,6.0438962 55,7.3398438 V 19.289062 a 45.718506,45.718506 0 0 0 -16.296875,6.685547 l -8.404297,-8.404297 c -0.916373,-0.916373 -2.39222,-0.916373 -3.308594,0 l -9.419922,9.419922 c -0.916373,0.916374 -0.916373,2.392221 0,3.308594 l 8.404297,8.404297 A 45.718506,45.718506 0 0 0 19.289062,55 H 7.3398438 C 6.0438963,55 5,56.043896 5,57.339844 V 70.660156 C 5,71.956104 6.0438962,73 7.3398438,73 H 19.289062 a 45.718506,45.718506 0 0 0 6.685547,16.296875 l -8.404297,8.404297 c -0.572731,0.572733 -0.787714,1.363081 -0.644531,2.099609 v 0.002 c 0.08615,0.441259 0.301367,0.863869 0.644531,1.207039 l 9.419922,9.41992 c 0.229094,0.22909 0.493883,0.40108 0.775391,0.51562 0.140772,0.0573 0.284312,0.10027 0.431641,0.12891 0.737047,0.14389 1.528355,-0.0713 2.101562,-0.64453 l 8.404297,-8.4043 A 45.718506,45.718506 0 0 0 55,108.71094 v 11.94922 C 55,121.9561 56.043896,123 57.339844,123 H 70.660156 C 71.956104,123 73,121.9561 73,120.66016 v -11.94922 a 45.718506,45.718506 0 0 0 16.296875,-6.68555 l 8.404297,8.4043 c 0.916373,0.91637 2.392218,0.91637 3.308598,0 l 9.41992,-9.41992 c 0.91637,-0.91638 0.91637,-2.392225 0,-3.308598 l -8.4043,-8.404297 A 45.718506,45.718506 0 0 0 108.71094,73 h 11.94922 C 121.9561,73 123,71.956104 123,70.660156 V 57.339844 C 123,56.043896 121.9561,55 120.66016,55 h -11.83789 a 45.718506,45.718506 0 0 0 -6.76368,-16.330078 l 8.3711,-8.371094 c 0.5732,-0.573207 0.78842,-1.364515 0.64453,-2.101562 -0.0286,-0.147329 -0.0716,-0.290869 -0.12891,-0.431641 -0.11454,-0.281508 -0.28653,-0.546297 -0.51562,-0.775391 l -9.41992,-9.419922 c -0.91638,-0.916373 -2.392225,-0.916373 -3.308598,0 l -8.371094,8.371094 A 45.718506,45.718506 0 0 0 73,19.177734 V 7.3398438 C 73,6.0438963 71.956104,5 70.660156,5 Z M 64,43.761719 A 20.23768,20.23768 0 0 1 84.238281,64 20.23768,20.23768 0 0 1 64,84.238281 20.23768,20.23768 0 0 1 43.761719,64 20.23768,20.23768 0 0 1 64,43.761719 Z"
             inkscape:export-filename="/home/focus/Imagens/vectors/rect929.png"
             inkscape:export-xdpi="200"
             inkscape:export-ydpi="200" />
        </g>
        <g
           id="layer5"
           inkscape:label="inside"
           style="display:inline;fill:#ffe099;fill-opacity:1;stroke:none;stroke-width:1.1056;stroke-miterlimit:4;stroke-dasharray:none;stroke-opacity:1" />
      </g>
      <g
         aria-label="Training Quizzes "
         id="text2233"
         style="font-size:2.36786px;line-height:0;font-family:'Baloo Paaji 2';-inkscape-font-specification:'Baloo Paaji 2, ';stroke-width:0.0591979">
        <path
           d="m 15.709481,2.0475362 q 0.05968,0.093777 0.102302,0.24723 0.05115,0.1534531 0.05115,0.3324816 0,0.3239565 -0.144928,0.4688844 -0.136403,0.1449279 -0.375107,0.1449279 h -0.963345 v 3.9642042 q -0.09378,0.025576 -0.289855,0.051151 -0.196079,0.025576 -0.400683,0.025576 -0.451834,0 -0.630863,-0.153453 Q 12.88765,6.9750847 12.88765,6.5744017 V 3.2410601 h -1.287301 q -0.05968,-0.093777 -0.110827,-0.2472299 -0.04263,-0.1534531 -0.04263,-0.3324817 0,-0.3239565 0.136403,-0.4688844 0.144927,-0.1449279 0.383632,-0.1449279 h 3.74255 z"
           style="font-weight:800;font-size:8.52517px;-inkscape-font-specification:'Baloo Paaji 2 Ultra-Bold'"
           id="path501" />
        <path
           d="m 17.585009,7.2052643 q -0.09378,0.025576 -0.272806,0.051151 -0.170503,0.025576 -0.375107,0.025576 -0.426259,0 -0.613812,-0.1364027 Q 16.13573,7.0006602 16.13573,6.5999772 V 4.0680016 q 0,-0.2472299 0.127877,-0.4262585 0.127878,-0.1875538 0.349532,-0.3239565 0.298381,-0.1790286 0.690539,-0.2728054 0.400683,-0.093777 0.835467,-0.093777 0.929243,0 0.929243,0.6564381 0,0.1534531 -0.04262,0.2898558 -0.04263,0.1278776 -0.102302,0.2216544 -0.161979,-0.034101 -0.468885,-0.034101 -0.221654,0 -0.460359,0.051151 -0.23018,0.051151 -0.409208,0.153453 z"
           style="font-weight:800;font-size:8.52517px;-inkscape-font-specification:'Baloo Paaji 2 Ultra-Bold'"
           id="path498" />
        <path
           d="m 21.284932,6.2930711 q 0.144928,0 0.315432,-0.025575 0.179028,-0.034101 0.26428,-0.085252 V 5.5002302 l -0.613812,0.051151 q -0.238705,0.01705 -0.392158,0.1023021 -0.153453,0.085252 -0.153453,0.2557551 0,0.1705034 0.127877,0.2813306 0.136403,0.1023021 0.451834,0.1023021 z m -0.0682,-3.350392 q 0.460359,0 0.835467,0.093777 0.383632,0.093777 0.647913,0.2898558 0.272805,0.1875537 0.417733,0.4859347 0.144928,0.2898558 0.144928,0.6905388 v 1.9096382 q 0,0.2216544 -0.127878,0.3665823 -0.119352,0.1364027 -0.289856,0.2387047 -0.554136,0.3324817 -1.560106,0.3324817 -0.451834,0 -0.818416,-0.085252 Q 20.108459,7.1796888 19.844178,7.0091854 19.588423,6.838682 19.443495,6.5744017 19.307093,6.3101214 19.307093,5.9605894 q 0,-0.5882367 0.349532,-0.903668 0.349532,-0.3154313 1.082696,-0.3921579 L 21.856119,4.5454112 V 4.485735 q 0,-0.24723 -0.221655,-0.349532 -0.213129,-0.1108272 -0.622337,-0.1108272 -0.315431,0 -0.630863,0.068201 -0.306906,0.068201 -0.554136,0.1705034 -0.110827,-0.076727 -0.187554,-0.2301796 -0.07673,-0.1619782 -0.07673,-0.3324816 0,-0.2216544 0.102302,-0.349532 0.110827,-0.1364027 0.332482,-0.2301796 0.247229,-0.093777 0.579711,-0.1364027 0.341007,-0.042626 0.639388,-0.042626 z"
           style="font-weight:800;font-size:8.52517px;-inkscape-font-specification:'Baloo Paaji 2 Ultra-Bold'"
           id="path495" />
        <path
           d="m 24.183496,3.1302329 q 0.09378,-0.025576 0.26428,-0.051151 0.179029,-0.025576 0.383633,-0.025576 0.426258,0 0.613812,0.1449279 0.187554,0.1364028 0.187554,0.5370858 v 3.4697443 q -0.09378,0.025576 -0.272806,0.051151 -0.170503,0.025576 -0.375107,0.025576 -0.426259,0 -0.613813,-0.1364027 -0.187553,-0.1449279 -0.187553,-0.5456109 z m -0.0682,-1.2105742 q 0,-0.3239565 0.21313,-0.5456109 0.221654,-0.2216544 0.579711,-0.2216544 0.358057,0 0.571187,0.2216544 0.221654,0.2216544 0.221654,0.5456109 0,0.3239565 -0.221654,0.5456109 -0.21313,0.2216544 -0.571187,0.2216544 -0.358057,0 -0.579711,-0.2216544 -0.21313,-0.2216544 -0.21313,-0.5456109 z"
           style="font-weight:800;font-size:8.52517px;-inkscape-font-specification:'Baloo Paaji 2 Ultra-Bold'"
           id="path492" />
        <path
           d="m 30.628521,7.2052643 q -0.09378,0.025576 -0.272805,0.051151 -0.170504,0.025576 -0.375108,0.025576 -0.426258,0 -0.613812,-0.1364027 Q 29.179242,7.0006602 29.179242,6.5999772 V 4.588037 q 0,-0.2642803 -0.161978,-0.3836327 -0.153453,-0.1278775 -0.409208,-0.1278775 -0.170504,0 -0.323957,0.042626 -0.144928,0.042626 -0.28133,0.1108272 v 2.9752845 q -0.09378,0.025576 -0.272806,0.051151 -0.170503,0.025576 -0.375107,0.025576 -0.426259,0 -0.613813,-0.1364027 Q 26.55349,7.0006602 26.55349,6.5999772 V 4.0339009 q 0,-0.2301796 0.09378,-0.3751075 0.102302,-0.1449279 0.272805,-0.2642802 0.289856,-0.2046041 0.72464,-0.3239565 0.443308,-0.1278776 0.980394,-0.1278776 0.963344,0 1.48338,0.4262585 0.520035,0.4177334 0.520035,1.1764736 z"
           style="font-weight:800;font-size:8.52517px;-inkscape-font-specification:'Baloo Paaji 2 Ultra-Bold'"
           id="path489" />
        <path
           d="m 31.557765,3.1302329 q 0.09378,-0.025576 0.26428,-0.051151 0.179029,-0.025576 0.383633,-0.025576 0.426259,0 0.613812,0.1449279 0.187554,0.1364028 0.187554,0.5370858 v 3.4697443 q -0.09378,0.025576 -0.272805,0.051151 -0.170504,0.025576 -0.375108,0.025576 -0.426258,0 -0.613812,-0.1364027 -0.187554,-0.1449279 -0.187554,-0.5456109 z m -0.0682,-1.2105742 q 0,-0.3239565 0.213129,-0.5456109 0.221655,-0.2216544 0.579712,-0.2216544 0.358057,0 0.571186,0.2216544 0.221655,0.2216544 0.221655,0.5456109 0,0.3239565 -0.221655,0.5456109 -0.213129,0.2216544 -0.571186,0.2216544 -0.358057,0 -0.579712,-0.2216544 -0.213129,-0.2216544 -0.213129,-0.5456109 z"
           style="font-weight:800;font-size:8.52517px;-inkscape-font-specification:'Baloo Paaji 2 Ultra-Bold'"
           id="path486" />
        <path
           d="m 38.002791,7.2052643 q -0.09378,0.025576 -0.272806,0.051151 -0.170503,0.025576 -0.375107,0.025576 -0.426259,0 -0.613813,-0.1364027 Q 36.553512,7.0006602 36.553512,6.5999772 V 4.588037 q 0,-0.2642803 -0.161979,-0.3836327 -0.153453,-0.1278775 -0.409208,-0.1278775 -0.170503,0 -0.323956,0.042626 -0.144928,0.042626 -0.281331,0.1108272 v 2.9752845 q -0.09378,0.025576 -0.272805,0.051151 -0.170504,0.025576 -0.375108,0.025576 -0.426258,0 -0.613812,-0.1364027 Q 33.927759,7.0006602 33.927759,6.5999772 V 4.0339009 q 0,-0.2301796 0.09378,-0.3751075 0.102302,-0.1449279 0.272806,-0.2642802 0.289855,-0.2046041 0.724639,-0.3239565 0.443309,-0.1278776 0.980395,-0.1278776 0.963344,0 1.483379,0.4262585 0.520036,0.4177334 0.520036,1.1764736 z"
           style="font-weight:800;font-size:8.52517px;-inkscape-font-specification:'Baloo Paaji 2 Ultra-Bold'"
           id="path483" />
        <path
           d="m 41.455487,6.8983582 q -0.170503,0.068201 -0.383633,0.1108272 -0.204604,0.034101 -0.460359,0.034101 -0.383633,0 -0.733165,-0.1023021 Q 39.537324,6.8301568 39.273043,6.591452 39.017288,6.3442221 38.863835,5.9605894 38.710382,5.5769568 38.710382,5.0228207 q 0,-0.5115102 0.153453,-0.8951429 Q 39.025813,3.73552 39.307144,3.4712397 39.597,3.2069594 40.006208,3.0790819 q 0.409208,-0.1364028 0.912193,-0.1364028 0.238705,0 0.468885,0.034101 0.230179,0.034101 0.426258,0.093777 0.204604,0.059676 0.366582,0.1278775 0.161979,0.068201 0.272806,0.1449279 0.170503,0.1193524 0.26428,0.2728055 0.102302,0.1449279 0.102302,0.3751075 v 3.1628382 q 0,0.451834 -0.170503,0.7757905 -0.161978,0.3324816 -0.460359,0.5456109 -0.289856,0.2216544 -0.690539,0.3239564 -0.392158,0.1023021 -0.843992,0.1023021 -0.460359,0 -0.809891,-0.076726 -0.349532,-0.068201 -0.554136,-0.2046041 -0.306906,-0.2046041 -0.306906,-0.5797116 0,-0.1960789 0.07673,-0.3580572 0.08525,-0.1619782 0.187554,-0.2387047 0.24723,0.1364027 0.554136,0.2301796 0.315431,0.093777 0.656438,0.093777 0.451834,0 0.72464,-0.153453 0.272805,-0.1534531 0.272805,-0.4944599 z M 40.884301,5.9605894 q 0.170503,0 0.298381,-0.034101 0.136402,-0.042626 0.247229,-0.1108272 V 4.1788288 q -0.09378,-0.042626 -0.196078,-0.068201 -0.09378,-0.034101 -0.255756,-0.034101 -0.366582,0 -0.596761,0.2301796 -0.23018,0.2216544 -0.23018,0.7246395 0,0.5370857 0.204604,0.7331646 0.213129,0.1960789 0.528561,0.1960789 z"
           style="font-weight:800;font-size:8.52517px;-inkscape-font-specification:'Baloo Paaji 2 Ultra-Bold'"
           id="path480" />
        <path
           d="m 50.671206,4.6136125 q 0,0.8439919 -0.315432,1.4322286 -0.315431,0.5882368 -0.852517,0.9121933 0.358057,0.1619782 0.750215,0.2813306 0.392158,0.1278775 0.72464,0.2301796 0.0085,0.051151 0.0085,0.085252 0,0.042626 0,0.076727 0,0.4859347 -0.255755,0.7075891 -0.24723,0.2216545 -0.656438,0.2216545 -0.392158,0 -0.809892,-0.2216545 -0.417708,-0.21313 -0.852492,-0.6223382 L 48.019878,7.3501922 h -0.05115 q -0.579712,0 -1.074172,-0.1790286 Q 46.400095,6.992135 46.042038,6.6511282 45.683981,6.3015962 45.479377,5.790086 45.274773,5.2785758 45.274773,4.6136125 q 0,-0.6649633 0.204604,-1.1679483 0.213129,-0.5115102 0.571186,-0.8525171 0.366583,-0.3495319 0.852517,-0.5285605 0.49446,-0.1790286 1.065647,-0.1790286 0.571186,0 1.057121,0.1790286 0.49446,0.1790286 0.861042,0.5285605 0.366582,0.3410069 0.571186,0.8525171 0.21313,0.502985 0.21313,1.1679483 z m -1.534531,0 q 0,-0.7672653 -0.315431,-1.1423728 -0.315432,-0.3836327 -0.852517,-0.3836327 -0.520036,0 -0.843992,0.3751075 -0.315432,0.3751075 -0.315432,1.150898 0,0.7757905 0.315432,1.1594232 0.315431,0.3751075 0.852517,0.3751075 0.52856,0 0.843992,-0.3751075 0.315431,-0.3836327 0.315431,-1.1594232 z"
           style="font-weight:800;font-size:8.52517px;-inkscape-font-specification:'Baloo Paaji 2 Ultra-Bold'"
           id="path477" />
        <path
           d="m 51.429947,3.087607 q 0.09378,-0.025576 0.26428,-0.051151 0.179029,-0.025575 0.383633,-0.025575 0.426258,0 0.613812,0.1449279 0.187554,0.1364027 0.187554,0.5370857 v 1.8755375 q 0,0.349532 0.170503,0.502985 0.170504,0.1449279 0.49446,0.1449279 0.196079,0 0.315431,-0.034101 0.127878,-0.034101 0.196079,-0.068201 V 3.087607 q 0.09378,-0.025576 0.264281,-0.051151 0.179028,-0.025575 0.383632,-0.025575 0.426259,0 0.613813,0.1449279 0.187553,0.1364027 0.187553,0.5370857 v 2.6342776 q 0,0.4262586 -0.358057,0.6393878 -0.298381,0.1875538 -0.716114,0.2813306 -0.409208,0.1023021 -0.895143,0.1023021 -0.460359,0 -0.852517,-0.1023021 Q 52.299514,7.1455881 52.018184,6.9324588 51.736853,6.7193296 51.5834,6.3868479 51.429947,6.0458411 51.429947,5.5684316 Z"
           style="font-weight:800;font-size:8.52517px;-inkscape-font-specification:'Baloo Paaji 2 Ultra-Bold'"
           id="path474" />
        <path
           d="m 56.425702,3.1302329 q 0.09378,-0.025576 0.264281,-0.051151 0.179028,-0.025576 0.383632,-0.025576 0.426259,0 0.613812,0.1449279 0.187554,0.1364028 0.187554,0.5370858 v 3.4697443 q -0.09378,0.025576 -0.272805,0.051151 -0.170504,0.025576 -0.375108,0.025576 -0.426258,0 -0.613812,-0.1364027 -0.187554,-0.1449279 -0.187554,-0.5456109 z m -0.0682,-1.2105742 q 0,-0.3239565 0.213129,-0.5456109 0.221655,-0.2216544 0.579712,-0.2216544 0.358057,0 0.571186,0.2216544 0.221655,0.2216544 0.221655,0.5456109 0,0.3239565 -0.221655,0.5456109 -0.213129,0.2216544 -0.571186,0.2216544 -0.358057,0 -0.579712,-0.2216544 -0.213129,-0.2216544 -0.213129,-0.5456109 z"
           style="font-weight:800;font-size:8.52517px;-inkscape-font-specification:'Baloo Paaji 2 Ultra-Bold'"
           id="path471" />
        <path
           d="m 61.847707,3.0790819 q 0.136403,0.1193523 0.21313,0.2813306 0.08525,0.1619782 0.08525,0.3665823 0,0.1705034 -0.08525,0.3410068 -0.07673,0.1619782 -0.196079,0.3069061 l -1.432229,1.7220845 h 1.670933 q 0.05115,0.093777 0.09378,0.2387047 0.05115,0.1449279 0.05115,0.3154313 0,0.298381 -0.136402,0.4347837 -0.127878,0.1278776 -0.349532,0.1278776 H 58.940624 Q 58.804221,7.0944371 58.71897,6.9324588 58.64224,6.7704806 58.64224,6.5658765 q 0,-0.1705034 0.07673,-0.3324816 0.08525,-0.1705034 0.204604,-0.3154313 L 60.389903,4.1958792 H 58.821272 Q 58.770122,4.1021022 58.71897,3.9571744 58.67634,3.8122465 58.67634,3.6417431 q 0,-0.298381 0.127877,-0.4262585 0.136403,-0.1364027 0.358058,-0.1364027 h 2.685428 z"
           style="font-weight:800;font-size:8.52517px;-inkscape-font-specification:'Baloo Paaji 2 Ultra-Bold'"
           id="path468" />
        <path
           d="m 65.94832,3.0790819 q 0.136403,0.1193523 0.213129,0.2813306 0.08525,0.1619782 0.08525,0.3665823 0,0.1705034 -0.08525,0.3410068 -0.07673,0.1619782 -0.196079,0.3069061 l -1.432228,1.7220845 h 1.670933 q 0.05115,0.093777 0.09378,0.2387047 0.05115,0.1449279 0.05115,0.3154313 0,0.298381 -0.136403,0.4347837 -0.127877,0.1278776 -0.349532,0.1278776 h -2.821831 q -0.136403,-0.1193524 -0.221655,-0.2813307 -0.07673,-0.1619782 -0.07673,-0.3665823 0,-0.1705034 0.07673,-0.3324816 0.08525,-0.1705034 0.204604,-0.3154313 l 1.46633,-1.7220844 h -1.568632 q -0.05115,-0.093777 -0.102302,-0.2387048 -0.04262,-0.1449279 -0.04262,-0.3154313 0,-0.298381 0.127877,-0.4262585 0.136403,-0.1364027 0.358057,-0.1364027 h 2.685429 z"
           style="font-weight:800;font-size:8.52517px;-inkscape-font-specification:'Baloo Paaji 2 Ultra-Bold'"
           id="path465" />
        <path
           d="m 68.156346,5.7133595 q 0.119352,0.3069061 0.400683,0.4347837 0.28133,0.1193524 0.630862,0.1193524 0.358057,0 0.682014,-0.085252 0.323956,-0.093777 0.520035,-0.2131293 0.136403,0.085252 0.23018,0.2387048 0.09378,0.153453 0.09378,0.3239564 0,0.2131293 -0.119353,0.3665824 -0.119352,0.153453 -0.341007,0.2557551 -0.213129,0.102302 -0.51151,0.1449279 -0.298381,0.051151 -0.656438,0.051151 -0.502985,0 -0.937769,-0.1364027 Q 67.721562,7.0688616 67.406131,6.7875309 67.090699,6.5062003 66.911671,6.0799418 66.732642,5.6536833 66.732642,5.0824969 q 0,-0.5626613 0.179029,-0.9633443 0.187553,-0.4092081 0.485934,-0.6649633 0.306907,-0.2642802 0.690539,-0.3836326 0.383633,-0.1278776 0.784316,-0.1278776 0.451834,0 0.818416,0.1364028 0.375108,0.1364027 0.639388,0.3751074 0.272805,0.2387048 0.417733,0.5711865 0.144928,0.3324816 0.144928,0.7246394 0,0.2898558 -0.161978,0.4433089 -0.161978,0.1534531 -0.451834,0.1960789 z m 0.724639,-1.7135592 q -0.323956,0 -0.545611,0.1960789 -0.213129,0.1960789 -0.255755,0.554136 l 1.449279,-0.2387047 q -0.0085,-0.085252 -0.05115,-0.1705034 -0.04263,-0.093777 -0.119352,-0.1705034 -0.07673,-0.076727 -0.196079,-0.1193524 -0.119353,-0.051151 -0.281331,-0.051151 z"
           style="font-weight:800;font-size:8.52517px;-inkscape-font-specification:'Baloo Paaji 2 Ultra-Bold'"
           id="path462" />
        <path
           d="m 75.087307,5.9776398 q 0,0.6479129 -0.485934,1.0144952 -0.485935,0.3665824 -1.432229,0.3665824 -0.358057,0 -0.664963,-0.051151 Q 72.197275,7.2564153 71.97562,7.1541133 71.762491,7.0432861 71.634613,6.8813078 71.515261,6.7193296 71.515261,6.4976752 q 0,-0.2046041 0.08525,-0.3410069 0.08525,-0.1449279 0.204604,-0.2387047 0.24723,0.1364027 0.562661,0.2472299 0.323957,0.1023021 0.74169,0.1023021 0.26428,0 0.400683,-0.076727 0.144928,-0.076727 0.144928,-0.2046041 0,-0.1193523 -0.102302,-0.1875537 -0.1023,-0.068201 -0.341005,-0.1108268 L 72.956015,5.636633 Q 72.214325,5.4917051 71.847743,5.1847989 71.489686,4.8693676 71.489686,4.289656 q 0,-0.3154313 0.136402,-0.5711864 0.136403,-0.2557551 0.383633,-0.4262585 0.24723,-0.1705034 0.588237,-0.2642803 0.349532,-0.093777 0.767265,-0.093777 0.315431,0 0.588237,0.051151 0.28133,0.042626 0.485935,0.1364027 0.204604,0.093777 0.323956,0.2472299 0.119352,0.1449279 0.119352,0.349532 0,0.1960789 -0.07673,0.3410068 -0.0682,0.1364028 -0.179029,0.2301796 -0.0682,-0.042626 -0.204604,-0.085252 -0.136403,-0.051151 -0.298381,-0.085252 -0.161978,-0.042626 -0.332481,-0.068201 -0.161979,-0.025576 -0.298381,-0.025576 -0.281331,0 -0.434784,0.068201 -0.153453,0.059676 -0.153453,0.1960789 0,0.093777 0.08525,0.1534531 0.08525,0.059676 0.323956,0.1108272 l 0.26428,0.059676 q 0.818417,0.1875538 1.159423,0.5200354 0.349532,0.3239565 0.349532,0.8439919 z"
           style="font-weight:800;font-size:8.52517px;-inkscape-font-specification:'Baloo Paaji 2 Ultra-Bold'"
           id="path459" />
      </g>
    </g>
  </g>
</svg>
