<?xml version="1.0" encoding="UTF-8" standalone="no"?>
<!-- Created with Inkscape (http://www.inkscape.org/) -->

<svg
   width="95"
   height="45"
   viewBox="0 0 25.135416 11.90625"
   version="1.1"
   id="svg923"
   inkscape:version="1.1 (c4e8f9ed74, 2021-05-24)"
   sodipodi:docname="logo_reduced.svg"
   xmlns:inkscape="http://www.inkscape.org/namespaces/inkscape"
   xmlns:sodipodi="http://sodipodi.sourceforge.net/DTD/sodipodi-0.dtd"
   xmlns="http://www.w3.org/2000/svg"
   xmlns:svg="http://www.w3.org/2000/svg">
  <sodipodi:namedview
     id="namedview925"
     pagecolor="#ffffff"
     bordercolor="#666666"
     borderopacity="1.0"
     inkscape:pageshadow="2"
     inkscape:pageopacity="0.0"
     inkscape:pagecheckerboard="0"
     inkscape:document-units="mm"
     showgrid="false"
     units="px"
     inkscape:zoom="5.3664983"
     inkscape:cx="49.659943"
     inkscape:cy="26.83314"
     inkscape:window-width="1920"
     inkscape:window-height="1013"
     inkscape:window-x="0"
     inkscape:window-y="30"
     inkscape:window-maximized="1"
     inkscape:current-layer="g878" />
  <defs
     id="defs920" />
  <g
     inkscape:label="Camada 1"
     inkscape:groupmode="layer"
     id="layer1">
    <g
       id="g878"
       transform="matrix(0.0995288,0,0,0.0995288,-0.05342129,-30.198277)">
      <g
         id="g886"
         inkscape:label="outside"
         style="display:inline;fill:#ffe099;fill-opacity:1;stroke:none;stroke-width:1.1056;stroke-miterlimit:4;stroke-dasharray:none;stroke-opacity:1"
         transform="matrix(0.96846294,0,0,0.96846294,0.8771836,301.24391)">
        <path
           id="path884"
           style="fill:#ffe099;fill-opacity:1;stroke:none;stroke-width:1.1056;stroke-miterlimit:4;stroke-dasharray:none;stroke-opacity:1;paint-order:stroke fill markers"
           d="M 57.339844,5 C 56.043896,5 55,6.0438962 55,7.3398438 V 19.289062 a 45.718506,45.718506 0 0 0 -16.296875,6.685547 l -8.404297,-8.404297 c -0.916373,-0.916373 -2.39222,-0.916373 -3.308594,0 l -9.419922,9.419922 c -0.916373,0.916374 -0.916373,2.392221 0,3.308594 l 8.404297,8.404297 A 45.718506,45.718506 0 0 0 19.289062,55 H 7.3398438 C 6.0438963,55 5,56.043896 5,57.339844 V 70.660156 C 5,71.956104 6.0438962,73 7.3398438,73 H 19.289062 a 45.718506,45.718506 0 0 0 6.685547,16.296875 l -8.404297,8.404297 c -0.572731,0.572733 -0.787714,1.363081 -0.644531,2.099609 v 0.002 c 0.08615,0.441259 0.301367,0.863869 0.644531,1.207039 l 9.419922,9.41992 c 0.229094,0.22909 0.493883,0.40108 0.775391,0.51562 0.140772,0.0573 0.284312,0.10027 0.431641,0.12891 0.737047,0.14389 1.528355,-0.0713 2.101562,-0.64453 l 8.404297,-8.4043 A 45.718506,45.718506 0 0 0 55,108.71094 v 11.94922 C 55,121.9561 56.043896,123 57.339844,123 H 70.660156 C 71.956104,123 73,121.9561 73,120.66016 v -11.94922 a 45.718506,45.718506 0 0 0 16.296875,-6.68555 l 8.404297,8.4043 c 0.916373,0.91637 2.392218,0.91637 3.308598,0 l 9.41992,-9.41992 c 0.91637,-0.91638 0.91637,-2.392225 0,-3.308598 l -8.4043,-8.404297 A 45.718506,45.718506 0 0 0 108.71094,73 h 11.94922 C 121.9561,73 123,71.956104 123,70.660156 V 57.339844 C 123,56.043896 121.9561,55 120.66016,55 h -11.83789 a 45.718506,45.718506 0 0 0 -6.76368,-16.330078 l 8.3711,-8.371094 c 0.5732,-0.573207 0.78842,-1.364515 0.64453,-2.101562 -0.0286,-0.147329 -0.0716,-0.290869 -0.12891,-0.431641 -0.11454,-0.281508 -0.28653,-0.546297 -0.51562,-0.775391 l -9.41992,-9.419922 c -0.91638,-0.916373 -2.392225,-0.916373 -3.308598,0 l -8.371094,8.371094 A 45.718506,45.718506 0 0 0 73,19.177734 V 7.3398438 C 73,6.0438963 71.956104,5 70.660156,5 Z M 64,43.761719 A 20.23768,20.23768 0 0 1 84.238281,64 20.23768,20.23768 0 0 1 64,84.238281 20.23768,20.23768 0 0 1 43.761719,64 20.23768,20.23768 0 0 1 64,43.761719 Z"
           inkscape:export-filename="/home/focus/Imagens/vectors/rect929.png"
           inkscape:export-xdpi="200"
           inkscape:export-ydpi="200" />
      </g>
      <g
         aria-label="English "
         id="text896"
         style="font-size:8.15205px;line-height:0;font-family:'Baloo Paaji 2';-inkscape-font-specification:'Baloo Paaji 2, ';stroke-width:0.203802"
         transform="matrix(1.451913,0,0,1.451913,-31.742138,-164.14307)">
        <path
           d="m 72.968799,344.16208 q -1.261943,0 -1.99563,-0.73369 -0.733688,-0.73369 -0.733688,-1.99563 v -12.41399 q 0,-1.26194 0.733688,-1.99563 0.733687,-0.73369 1.99563,-0.73369 h 9.684675 q 0.205432,0.32282 0.35217,0.82173 0.176085,0.49891 0.176085,1.11521 0,1.08585 -0.46956,1.58476 -0.46956,0.49891 -1.29129,0.49891 h -6.192323 v 2.72932 h 6.603188 q 0.205432,0.32282 0.35217,0.82173 0.176085,0.4989 0.176085,1.1152 0,1.08586 -0.46956,1.58477 -0.46956,0.46956 -1.29129,0.46956 h -5.370593 v 3.08148 h 7.542308 q 0.205432,0.32283 0.35217,0.85108 0.176085,0.52826 0.176085,1.14455 0,1.08586 -0.46956,1.58477 -0.46956,0.46956 -1.29129,0.46956 z"
           style="font-weight:800;font-size:29.3475px;-inkscape-font-specification:'Baloo Paaji 2 Ultra-Bold'"
           id="path833" />
        <path
           d="m 99.821683,344.04469 q -0.322822,0.088 -0.93912,0.17608 -0.58695,0.0881 -1.29129,0.0881 -1.467375,0 -2.11302,-0.46956 -0.645645,-0.49891 -0.645645,-1.87824 v -6.92601 q 0,-0.90978 -0.557602,-1.32064 -0.528255,-0.44021 -1.40868,-0.44021 -0.58695,0 -1.115205,0.14673 -0.498908,0.14674 -0.968468,0.38152 v 10.24228 q -0.322822,0.088 -0.93912,0.17608 -0.58695,0.0881 -1.29129,0.0881 -1.467375,0 -2.11302,-0.46956 -0.645645,-0.49891 -0.645645,-1.87824 v -8.8336 q 0,-0.79238 0.322823,-1.29129 0.35217,-0.49891 0.93912,-0.90977 0.997815,-0.70434 2.494537,-1.11521 1.52607,-0.44021 3.374963,-0.44021 3.316267,0 5.106465,1.46737 1.790197,1.43803 1.790197,4.04996 z"
           style="font-weight:800;font-size:29.3475px;-inkscape-font-specification:'Baloo Paaji 2 Ultra-Bold'"
           id="path835" />
        <path
           d="m 111.70737,342.98818 q -0.58695,0.23478 -1.32064,0.38152 -0.70434,0.11739 -1.58476,0.11739 -1.32064,0 -2.52389,-0.35217 -1.1739,-0.38152 -2.08367,-1.20325 -0.88043,-0.85108 -1.40868,-2.17172 -0.52826,-1.32063 -0.52826,-3.22822 0,-1.76085 0.52826,-3.08149 0.5576,-1.34998 1.52607,-2.25976 0.99781,-0.90977 2.40649,-1.34998 1.40868,-0.46956 3.14019,-0.46956 0.82173,0 1.61411,0.11739 0.79238,0.11739 1.46737,0.32282 0.70434,0.20543 1.26195,0.44021 0.5576,0.23478 0.93912,0.49891 0.58695,0.41087 0.90977,0.93912 0.35217,0.49891 0.35217,1.29129 v 10.88792 q 0,1.55542 -0.58695,2.67063 -0.5576,1.14455 -1.58477,1.87824 -0.99781,0.76303 -2.37714,1.1152 -1.34999,0.35217 -2.90541,0.35217 -1.58476,0 -2.78801,-0.26413 -1.20325,-0.23478 -1.90759,-0.70434 -1.05651,-0.70434 -1.05651,-1.99563 0,-0.67499 0.26413,-1.23259 0.29348,-0.5576 0.64565,-0.82173 0.85107,0.46956 1.90758,0.79238 1.08586,0.32282 2.25976,0.32282 1.55542,0 2.49454,-0.52825 0.93912,-0.52826 0.93912,-1.70216 z m -1.96628,-3.22823 q 0.58695,0 1.02716,-0.11739 0.46956,-0.14673 0.85108,-0.38151 v -5.63472 q -0.32283,-0.14674 -0.675,-0.23478 -0.32282,-0.11739 -0.88042,-0.11739 -1.26194,0 -2.05433,0.79238 -0.79238,0.76303 -0.79238,2.49454 0,1.84889 0.70434,2.52388 0.73369,0.67499 1.81955,0.67499 z"
           style="font-weight:800;font-size:29.3475px;-inkscape-font-specification:'Baloo Paaji 2 Ultra-Bold'"
           id="path837" />
        <path
           d="m 122.38982,344.30882 q -1.46738,0 -2.11302,-0.46956 -0.64565,-0.49891 -0.64565,-1.87824 v -17.02155 q 0.32283,-0.088 0.90978,-0.17609 0.61629,-0.088 1.32063,-0.088 1.46738,0 2.11302,0.49891 0.64565,0.46956 0.64565,1.84889 v 17.02155 q -0.32282,0.088 -0.93912,0.17608 -0.58695,0.0881 -1.29129,0.0881 z"
           style="font-weight:800;font-size:29.3475px;-inkscape-font-specification:'Baloo Paaji 2 Ultra-Bold'"
           id="path839" />
        <path
           d="m 127.93645,330.01658 q 0.32282,-0.088 0.90977,-0.17608 0.6163,-0.088 1.32064,-0.088 1.46738,0 2.11302,0.4989 0.64565,0.46956 0.64565,1.8489 v 11.94443 q -0.32283,0.088 -0.93912,0.17608 -0.58695,0.0881 -1.29129,0.0881 -1.46738,0 -2.11302,-0.46956 -0.64565,-0.49891 -0.64565,-1.87824 z m -0.23478,-4.16734 q 0,-1.11521 0.73369,-1.87824 0.76303,-0.76304 1.99563,-0.76304 1.23259,0 1.96628,0.76304 0.76304,0.76303 0.76304,1.87824 0,1.1152 -0.76304,1.87824 -0.73369,0.76303 -1.96628,0.76303 -1.2326,0 -1.99563,-0.76303 -0.73369,-0.76304 -0.73369,-1.87824 z"
           style="font-weight:800;font-size:29.3475px;-inkscape-font-specification:'Baloo Paaji 2 Ultra-Bold'"
           id="path841" />
        <path
           d="m 148.12752,339.81865 q 0,2.23041 -1.67281,3.49235 -1.6728,1.26194 -4.93038,1.26194 -1.23259,0 -2.2891,-0.17608 -1.05651,-0.17609 -1.81955,-0.52826 -0.73368,-0.38151 -1.1739,-0.93912 -0.41086,-0.5576 -0.41086,-1.32063 0,-0.70434 0.29347,-1.1739 0.29348,-0.49891 0.70434,-0.82173 0.85108,0.46956 1.93694,0.85107 1.1152,0.35217 2.55323,0.35217 0.90977,0 1.37933,-0.26412 0.49891,-0.26413 0.49891,-0.70434 0,-0.41087 -0.35217,-0.64565 -0.35217,-0.23478 -1.1739,-0.38152 l -0.88042,-0.17608 q -2.55324,-0.49891 -3.81518,-1.55542 -1.23259,-1.08586 -1.23259,-3.08149 0,-1.08585 0.46956,-1.96628 0.46956,-0.88042 1.32063,-1.46737 0.85108,-0.58695 2.02498,-0.90978 1.20325,-0.32282 2.64128,-0.32282 1.08585,0 2.02497,0.17609 0.96847,0.14673 1.67281,0.46956 0.70434,0.32282 1.11521,0.85107 0.41086,0.49891 0.41086,1.20325 0,0.67499 -0.26413,1.1739 -0.23478,0.46956 -0.61629,0.79238 -0.23478,-0.14673 -0.70434,-0.29347 -0.46956,-0.17609 -1.02717,-0.29348 -0.5576,-0.14673 -1.14455,-0.23478 -0.5576,-0.088 -1.02716,-0.088 -0.96847,0 -1.49672,0.23478 -0.52826,0.20543 -0.52826,0.67499 0,0.32283 0.29348,0.52826 0.29347,0.20543 1.1152,0.38152 l 0.90977,0.20543 q 2.81736,0.64564 3.99126,1.7902 1.20325,1.1152 1.20325,2.9054 z"
           style="font-weight:800;font-size:29.3475px;-inkscape-font-specification:'Baloo Paaji 2 Ultra-Bold'"
           id="path843" />
        <path
           d="m 164.62077,344.04469 q -0.32282,0.088 -0.93912,0.17608 -0.58695,0.0881 -1.29129,0.0881 -1.46737,0 -2.11302,-0.46956 -0.64564,-0.49891 -0.64564,-1.87824 v -6.51515 q 0,-1.20325 -0.6163,-1.67281 -0.58695,-0.4989 -1.46737,-0.4989 -0.58695,0 -1.08586,0.14673 -0.46956,0.14674 -0.88043,0.38152 v 10.24228 q -0.32282,0.088 -0.93912,0.17608 -0.58695,0.0881 -1.29129,0.0881 -1.46737,0 -2.11302,-0.46956 -0.64564,-0.49891 -0.64564,-1.87824 v -17.02155 q 0.32282,-0.088 0.90977,-0.17609 0.6163,-0.088 1.32064,-0.088 1.46737,0 2.11302,0.49891 0.64564,0.46956 0.64564,1.84889 v 2.9054 q 0.58695,-0.23478 1.32064,-0.38152 0.73369,-0.17608 1.58477,-0.17608 2.9054,0 4.51951,1.46737 1.61411,1.43803 1.61411,4.31409 v 8.89229 z"
           style="font-weight:800;font-size:29.3475px;-inkscape-font-specification:'Baloo Paaji 2 Ultra-Bold'"
           id="path845" />
      </g>
      <g
         aria-label="Training"
         id="text900"
         style="font-size:29.3475px;font-family:'Baloo Paaji 2';-inkscape-font-specification:'Baloo Paaji 2, ';stroke-width:0.203802"
         transform="matrix(1.4519135,0,0,1.4519135,-33.878833,-164.14436)">
        <path
           d="m 101.40616,352.96709 q 0.20543,0.32283 0.35217,0.85108 0.17608,0.52826 0.17608,1.14455 0,1.11521 -0.4989,1.61412 -0.46956,0.4989 -1.29129,0.4989 h -3.31627 v 13.64659 q -0.322823,0.088 -0.997815,0.17609 -0.674993,0.088 -1.379333,0.088 -1.555417,0 -2.171715,-0.52826 -0.58695,-0.52825 -0.58695,-1.90758 V 357.0757 h -4.431472 q -0.205433,-0.32282 -0.381518,-0.85107 -0.146737,-0.52826 -0.146737,-1.14456 0,-1.1152 0.46956,-1.61411 0.498907,-0.49891 1.320637,-0.49891 h 12.883553 z"
           style="font-weight:800;-inkscape-font-specification:'Baloo Paaji 2 Ultra-Bold'"
           id="path866" />
        <path
           d="m 107.86258,370.72233 q -0.32283,0.088 -0.93912,0.17609 -0.58695,0.088 -1.29129,0.088 -1.46738,0 -2.11302,-0.46956 -0.64565,-0.49891 -0.64565,-1.87824 v -8.71621 q 0,-0.85108 0.44021,-1.46737 0.44022,-0.64565 1.20325,-1.11521 1.02716,-0.6163 2.37715,-0.93912 1.37933,-0.32282 2.87605,-0.32282 3.19888,0 3.19888,2.25976 0,0.52825 -0.14674,0.99781 -0.14673,0.44021 -0.35217,0.76304 -0.5576,-0.11739 -1.61411,-0.11739 -0.76303,0 -1.58476,0.17608 -0.79239,0.17609 -1.40868,0.52826 z"
           style="font-weight:800;-inkscape-font-specification:'Baloo Paaji 2 Ultra-Bold'"
           id="path868" />
        <path
           d="m 120.59933,367.58215 q 0.49891,0 1.08586,-0.088 0.6163,-0.11739 0.90977,-0.29348 v -2.3478 l -2.11302,0.17609 q -0.82173,0.0587 -1.34998,0.35217 -0.52826,0.29347 -0.52826,0.88042 0,0.58695 0.44022,0.96847 0.46956,0.35217 1.55541,0.35217 z m -0.23478,-11.53357 q 1.58477,0 2.87606,0.32282 1.32064,0.32283 2.23041,0.99782 0.93912,0.64564 1.43803,1.67281 0.4989,0.99781 0.4989,2.37714 v 6.57384 q 0,0.76304 -0.44021,1.26195 -0.41086,0.46956 -0.99781,0.82173 -1.90759,1.14455 -5.3706,1.14455 -1.55541,0 -2.81736,-0.29348 -1.23259,-0.29347 -2.14236,-0.88042 -0.88043,-0.58695 -1.37934,-1.49672 -0.46956,-0.90978 -0.46956,-2.11302 0,-2.02498 1.20325,-3.11084 1.20325,-1.08586 3.72713,-1.34998 l 3.84453,-0.41087 v -0.20543 q 0,-0.85108 -0.76304,-1.20325 -0.73369,-0.38152 -2.14237,-0.38152 -1.08585,0 -2.17171,0.23478 -1.05651,0.23478 -1.90759,0.58695 -0.38152,-0.26412 -0.64564,-0.79238 -0.26413,-0.5576 -0.26413,-1.14455 0,-0.76304 0.35217,-1.20325 0.38152,-0.46956 1.14455,-0.79238 0.85108,-0.32282 1.99563,-0.46956 1.1739,-0.14674 2.20106,-0.14674 z"
           style="font-weight:800;-inkscape-font-specification:'Baloo Paaji 2 Ultra-Bold'"
           id="path870" />
        <path
           d="m 130.57744,356.69423 q 0.32283,-0.0881 0.90978,-0.17609 0.61629,-0.088 1.32063,-0.088 1.46738,0 2.11302,0.49891 0.64565,0.46956 0.64565,1.84889 v 11.94443 q -0.32282,0.088 -0.93912,0.17609 -0.58695,0.088 -1.29129,0.088 -1.46738,0 -2.11302,-0.46956 -0.64565,-0.49891 -0.64565,-1.87824 z m -0.23478,-4.16735 q 0,-1.1152 0.73369,-1.87824 0.76304,-0.76303 1.99563,-0.76303 1.2326,0 1.96628,0.76303 0.76304,0.76304 0.76304,1.87824 0,1.11521 -0.76304,1.87824 -0.73368,0.76304 -1.96628,0.76304 -1.23259,0 -1.99563,-0.76304 -0.73369,-0.76303 -0.73369,-1.87824 z"
           style="font-weight:800;-inkscape-font-specification:'Baloo Paaji 2 Ultra-Bold'"
           id="path872" />
        <path
           d="m 152.76414,370.72233 q -0.32282,0.088 -0.93912,0.17609 -0.58695,0.088 -1.29129,0.088 -1.46737,0 -2.11302,-0.46956 -0.64564,-0.49891 -0.64564,-1.87824 v -6.92601 q 0,-0.90977 -0.5576,-1.32064 -0.52826,-0.44021 -1.40868,-0.44021 -0.58695,0 -1.11521,0.14674 -0.49891,0.14673 -0.96847,0.38151 v 10.24228 q -0.32282,0.088 -0.93912,0.17609 -0.58695,0.088 -1.29129,0.088 -1.46737,0 -2.11302,-0.46956 -0.64564,-0.49891 -0.64564,-1.87824 v -8.8336 q 0,-0.79238 0.32282,-1.29129 0.35217,-0.49891 0.93912,-0.90977 0.99782,-0.70434 2.49454,-1.11521 1.52607,-0.44021 3.37496,-0.44021 3.31627,0 5.10647,1.46738 1.79019,1.43802 1.79019,4.04995 z"
           style="font-weight:800;-inkscape-font-specification:'Baloo Paaji 2 Ultra-Bold'"
           id="path874" />
        <path
           d="m 155.96297,356.69423 q 0.32282,-0.0881 0.90977,-0.17609 0.6163,-0.088 1.32064,-0.088 1.46738,0 2.11302,0.49891 0.64565,0.46956 0.64565,1.84889 v 11.94443 q -0.32283,0.088 -0.93912,0.17609 -0.58695,0.088 -1.29129,0.088 -1.46738,0 -2.11302,-0.46956 -0.64565,-0.49891 -0.64565,-1.87824 z m -0.23478,-4.16735 q 0,-1.1152 0.73369,-1.87824 0.76303,-0.76303 1.99563,-0.76303 1.23259,0 1.96628,0.76303 0.76304,0.76304 0.76304,1.87824 0,1.11521 -0.76304,1.87824 -0.73369,0.76304 -1.96628,0.76304 -1.2326,0 -1.99563,-0.76304 -0.73369,-0.76303 -0.73369,-1.87824 z"
           style="font-weight:800;-inkscape-font-specification:'Baloo Paaji 2 Ultra-Bold'"
           id="path876" />
        <path
           d="m 178.14966,370.72233 q -0.32282,0.088 -0.93912,0.17609 -0.58695,0.088 -1.29129,0.088 -1.46737,0 -2.11302,-0.46956 -0.64564,-0.49891 -0.64564,-1.87824 v -6.92601 q 0,-0.90977 -0.5576,-1.32064 -0.52826,-0.44021 -1.40868,-0.44021 -0.58695,0 -1.11521,0.14674 -0.49891,0.14673 -0.96847,0.38151 v 10.24228 q -0.32282,0.088 -0.93912,0.17609 -0.58695,0.088 -1.29129,0.088 -1.46737,0 -2.11302,-0.46956 -0.64564,-0.49891 -0.64564,-1.87824 v -8.8336 q 0,-0.79238 0.32282,-1.29129 0.35217,-0.49891 0.93912,-0.90977 0.99782,-0.70434 2.49454,-1.11521 1.52607,-0.44021 3.37496,-0.44021 3.31627,0 5.10647,1.46738 1.79019,1.43802 1.79019,4.04995 z"
           style="font-weight:800;-inkscape-font-specification:'Baloo Paaji 2 Ultra-Bold'"
           id="path878" />
        <path
           d="m 190.03535,369.66582 q -0.58695,0.23478 -1.32064,0.38152 -0.70434,0.11739 -1.58476,0.11739 -1.32064,0 -2.52389,-0.35217 -1.1739,-0.38152 -2.08367,-1.20325 -0.88042,-0.85108 -1.40868,-2.17171 -0.52825,-1.32064 -0.52825,-3.22823 0,-1.76085 0.52825,-3.08149 0.5576,-1.34998 1.52607,-2.25975 0.99782,-0.90978 2.4065,-1.34999 1.40868,-0.46956 3.14018,-0.46956 0.82173,0 1.61411,0.11739 0.79238,0.11739 1.46738,0.32282 0.70434,0.20544 1.26194,0.44022 0.5576,0.23478 0.93912,0.4989 0.58695,0.41087 0.90977,0.93912 0.35217,0.49891 0.35217,1.29129 v 10.88793 q 0,1.55541 -0.58695,2.67062 -0.5576,1.14455 -1.58476,1.87824 -0.99782,0.76303 -2.37715,1.1152 -1.34999,0.35217 -2.9054,0.35217 -1.58477,0 -2.78802,-0.26412 -1.20324,-0.23478 -1.90758,-0.70434 -1.05651,-0.70434 -1.05651,-1.99563 0,-0.675 0.26412,-1.2326 0.29348,-0.5576 0.64565,-0.82173 0.85108,0.46956 1.90759,0.79238 1.08585,0.32283 2.25975,0.32283 1.55542,0 2.49454,-0.52826 0.93912,-0.52825 0.93912,-1.70215 z m -1.96628,-3.22822 q 0.58695,0 1.02716,-0.11739 0.46956,-0.14674 0.85108,-0.38152 v -5.63472 q -0.32282,-0.14674 -0.67499,-0.23478 -0.32283,-0.11739 -0.88043,-0.11739 -1.26194,0 -2.05432,0.79238 -0.79239,0.76304 -0.79239,2.49454 0,1.84889 0.70434,2.52388 0.73369,0.675 1.81955,0.675 z"
           style="font-weight:800;-inkscape-font-specification:'Baloo Paaji 2 Ultra-Bold'"
           id="path880" />
      </g>
      <g
         aria-label="Quizzes"
         id="text904"
         style="font-size:29.3475px;font-family:'Baloo Paaji 2';-inkscape-font-specification:'Baloo Paaji 2, ';stroke-width:0.203802"
         transform="matrix(1.4519775,0,0,1.5187444,-31.746663,-189.31158)">
        <path
           d="m 88.816448,388.47836 q 0,2.90541 -1.085857,4.93038 -1.085858,2.02498 -2.93475,3.14019 1.232595,0.5576 2.58258,0.96846 1.349985,0.44022 2.494537,0.79239 0.02935,0.17608 0.02935,0.29347 0,0.14674 0,0.26413 0,1.67281 -0.880425,2.43584 -0.851078,0.76304 -2.259758,0.76304 -1.349985,0 -2.788012,-0.76304 -1.438028,-0.73369 -2.93475,-2.14237 l -1.349985,-1.26194 h -0.176085 q -1.99563,0 -3.697785,-0.6163 -1.702155,-0.61629 -2.93475,-1.79019 -1.232595,-1.20325 -1.936935,-2.9641 -0.70434,-1.76085 -0.70434,-4.04996 0,-2.2891 0.70434,-4.0206 0.733687,-1.76085 1.966282,-2.93475 1.261943,-1.20325 2.93475,-1.81955 1.702155,-0.6163 3.668438,-0.6163 1.966282,0 3.63909,0.6163 1.702155,0.6163 2.964097,1.81955 1.261943,1.1739 1.966283,2.93475 0.733687,1.7315 0.733687,4.0206 z m -5.28255,0 q 0,-2.64127 -1.085857,-3.93256 -1.085858,-1.32064 -2.93475,-1.32064 -1.790198,0 -2.905403,1.29129 -1.085857,1.29129 -1.085857,3.96191 0,2.67063 1.085857,3.99126 1.085858,1.29129 2.93475,1.29129 1.819545,0 2.905403,-1.29129 1.085857,-1.32063 1.085857,-3.99126 z"
           style="font-weight:800;-inkscape-font-specification:'Baloo Paaji 2 Ultra-Bold'"
           id="path901" />
        <path
           d="m 91.428374,383.22516 q 0.322822,-0.088 0.909772,-0.17608 0.616298,-0.0881 1.320638,-0.0881 1.467375,0 2.11302,0.49891 0.645645,0.46956 0.645645,1.84889 v 6.45645 q 0,1.20325 0.58695,1.73151 0.58695,0.4989 1.702155,0.4989 0.674992,0 1.085857,-0.11739 0.440209,-0.11739 0.674989,-0.23478 v -10.41836 q 0.32283,-0.088 0.90978,-0.17608 0.61629,-0.0881 1.32063,-0.0881 1.46738,0 2.11302,0.49891 0.64565,0.46956 0.64565,1.84889 v 9.06838 q 0,1.46738 -1.2326,2.20106 -1.02716,0.64565 -2.46519,0.96847 -1.40868,0.35217 -3.081484,0.35217 -1.584765,0 -2.93475,-0.35217 -1.320637,-0.35217 -2.289105,-1.08586 -0.968467,-0.73368 -1.496722,-1.87824 -0.528255,-1.1739 -0.528255,-2.81736 z"
           style="font-weight:800;-inkscape-font-specification:'Baloo Paaji 2 Ultra-Bold'"
           id="path903" />
        <path
           d="m 108.62597,383.3719 q 0.32283,-0.088 0.90978,-0.17609 0.61629,-0.088 1.32063,-0.088 1.46738,0 2.11302,0.49891 0.64565,0.46956 0.64565,1.84889 V 397.4 q -0.32282,0.0881 -0.93912,0.17609 -0.58695,0.088 -1.29129,0.088 -1.46738,0 -2.11302,-0.46956 -0.64565,-0.49891 -0.64565,-1.87824 z m -0.23478,-4.16735 q 0,-1.1152 0.73369,-1.87824 0.76304,-0.76303 1.99563,-0.76303 1.2326,0 1.96628,0.76303 0.76304,0.76304 0.76304,1.87824 0,1.11521 -0.76304,1.87824 -0.73368,0.76304 -1.96628,0.76304 -1.23259,0 -1.99563,-0.76304 -0.73369,-0.76303 -0.73369,-1.87824 z"
           style="font-weight:800;-inkscape-font-specification:'Baloo Paaji 2 Ultra-Bold'"
           id="path905" />
        <path
           d="m 127.29097,383.19581 q 0.46956,0.41087 0.73369,0.96847 0.29347,0.5576 0.29347,1.26194 0,0.58695 -0.29347,1.1739 -0.26413,0.55761 -0.67499,1.05651 l -4.93038,5.9282 h 5.75211 q 0.17608,0.32282 0.32282,0.82173 0.17608,0.49891 0.17608,1.08586 0,1.02716 -0.46956,1.49672 -0.44021,0.44021 -1.20324,0.44021 h -9.71403 q -0.46956,-0.41086 -0.76303,-0.96847 -0.26413,-0.5576 -0.26413,-1.26194 0,-0.58695 0.26413,-1.14455 0.29347,-0.58695 0.70434,-1.08586 l 5.04777,-5.92819 h -5.39994 q -0.17609,-0.32283 -0.35217,-0.82173 -0.14674,-0.49891 -0.14674,-1.08586 0,-1.02716 0.44021,-1.46738 0.46956,-0.46956 1.2326,-0.46956 z"
           style="font-weight:800;-inkscape-font-specification:'Baloo Paaji 2 Ultra-Bold'"
           id="path907" />
        <path
           d="m 141.40709,383.19581 q 0.46956,0.41087 0.73369,0.96847 0.29347,0.5576 0.29347,1.26194 0,0.58695 -0.29347,1.1739 -0.26413,0.55761 -0.675,1.05651 l -4.93038,5.9282 h 5.75211 q 0.17609,0.32282 0.32283,0.82173 0.17608,0.49891 0.17608,1.08586 0,1.02716 -0.46956,1.49672 -0.44021,0.44021 -1.20325,0.44021 h -9.71402 q -0.46956,-0.41086 -0.76303,-0.96847 -0.26413,-0.5576 -0.26413,-1.26194 0,-0.58695 0.26413,-1.14455 0.29347,-0.58695 0.70434,-1.08586 l 5.04777,-5.92819 h -5.39994 q -0.17609,-0.32283 -0.35217,-0.82173 -0.14674,-0.49891 -0.14674,-1.08586 0,-1.02716 0.44021,-1.46738 0.46956,-0.46956 1.2326,-0.46956 z"
           style="font-weight:800;-inkscape-font-specification:'Baloo Paaji 2 Ultra-Bold'"
           id="path909" />
        <path
           d="m 149.00806,392.26419 q 0.41086,1.05651 1.37933,1.49672 0.96847,0.41087 2.17171,0.41087 1.2326,0 2.3478,-0.29348 1.11521,-0.32282 1.7902,-0.73368 0.46956,0.29347 0.79238,0.82173 0.32283,0.52825 0.32283,1.1152 0,0.73369 -0.41087,1.26194 -0.41086,0.52826 -1.1739,0.88043 -0.73369,0.35217 -1.76085,0.49891 -1.02716,0.17608 -2.25976,0.17608 -1.7315,0 -3.22822,-0.46956 -1.46738,-0.49891 -2.55323,-1.46737 -1.08586,-0.96847 -1.70216,-2.43585 -0.6163,-1.46737 -0.6163,-3.43365 0,-1.93694 0.6163,-3.31627 0.64565,-1.40868 1.67281,-2.28911 1.05651,-0.90977 2.37715,-1.32063 1.32063,-0.44022 2.69997,-0.44022 1.55541,0 2.81736,0.46956 1.29129,0.46956 2.20106,1.29129 0.93912,0.82173 1.43803,1.96629 0.4989,1.14455 0.4989,2.49453 0,0.99782 -0.5576,1.52607 -0.5576,0.52826 -1.55542,0.675 z m 2.49453,-5.89885 q -1.1152,0 -1.87824,0.675 -0.73368,0.67499 -0.88042,1.90758 l 4.98907,-0.82173 q -0.0293,-0.29347 -0.17608,-0.58695 -0.14674,-0.32282 -0.41087,-0.58695 -0.26412,-0.26412 -0.67499,-0.41086 -0.41086,-0.17609 -0.96847,-0.17609 z"
           style="font-weight:800;-inkscape-font-specification:'Baloo Paaji 2 Ultra-Bold'"
           id="path911" />
        <path
           d="m 172.86757,393.17396 q 0,2.23041 -1.67281,3.49236 -1.67281,1.26194 -4.93038,1.26194 -1.2326,0 -2.28911,-0.17609 -1.05651,-0.17608 -1.81954,-0.52825 -0.73369,-0.38152 -1.1739,-0.93912 -0.41087,-0.5576 -0.41087,-1.32064 0,-0.70434 0.29348,-1.1739 0.29347,-0.49891 0.70434,-0.82173 0.85108,0.46956 1.93693,0.85108 1.11521,0.35217 2.55324,0.35217 0.90977,0 1.37933,-0.26413 0.49891,-0.26413 0.49891,-0.70434 0,-0.41086 -0.35217,-0.64564 -0.35217,-0.23478 -1.1739,-0.38152 l -0.88043,-0.17609 q -2.55323,-0.4989 -3.81517,-1.55541 -1.2326,-1.08586 -1.2326,-3.08149 0,-1.08586 0.46956,-1.96628 0.46956,-0.88043 1.32064,-1.46738 0.85108,-0.58695 2.02498,-0.90977 1.20324,-0.32282 2.64127,-0.32282 1.08586,0 2.02498,0.17608 0.96847,0.14674 1.67281,0.46956 0.70434,0.32282 1.1152,0.85108 0.41087,0.49891 0.41087,1.20325 0,0.67499 -0.26413,1.1739 -0.23478,0.46956 -0.6163,0.79238 -0.23478,-0.14674 -0.70434,-0.29348 -0.46956,-0.17608 -1.02716,-0.29347 -0.5576,-0.14674 -1.14455,-0.23478 -0.55761,-0.088 -1.02717,-0.088 -0.96846,0 -1.49672,0.23478 -0.52825,0.20543 -0.52825,0.67499 0,0.32282 0.29347,0.52825 0.29348,0.20544 1.11521,0.38152 l 0.90977,0.20543 q 2.81736,0.64565 3.99126,1.7902 1.20325,1.11521 1.20325,2.9054 z"
           style="font-weight:800;-inkscape-font-specification:'Baloo Paaji 2 Ultra-Bold'"
           id="path913" />
      </g>
    </g>
  </g>
</svg>
